<svg width="900" height="450" viewBox="0 0 900 450" fill="none" xmlns="http://www.w3.org/2000/svg">
<g clip-path="url(#clip0_1066_59744)">
<path d="M900 0H0V450H900V0Z" fill="#00A2FF"/>
<path d="M667.798 130.299C667.798 119.699 659.198 111.199 648.698 111.199H354.698C344.098 111.199 335.598 119.799 335.598 130.299V147.099H335.398V318.899C335.398 329.499 343.998 337.999 354.498 337.999H648.498C659.098 337.999 667.598 329.399 667.498 318.899V309.799C667.698 308.699 667.798 307.499 667.798 306.299V130.199V130.299Z" fill="black"/>
<path d="M596.8 129.599C596.8 133.099 594 135.999 590.4 135.999C586.8 135.999 584 133.199 584 129.599C584 125.999 586.8 123.199 590.4 123.199C593.9 123.199 596.8 126.099 596.8 129.599Z" fill="white"/>
<path d="M622.8 129.599C622.8 133.099 620 135.999 616.4 135.999C612.8 135.999 610 133.199 610 129.599C610 125.999 612.8 123.199 616.4 123.199C620 123.199 622.8 126.099 622.8 129.599Z" fill="white"/>
<path d="M648.902 129.599C648.902 133.099 646.102 135.999 642.502 135.999C638.902 135.999 636.102 133.199 636.102 129.599C636.102 125.999 638.902 123.199 642.502 123.199C646.002 123.199 648.902 126.099 648.902 129.599Z" fill="white"/>
<path d="M341.395 147.698V152.998H341.195V318.998C341.195 326.398 347.195 332.298 354.495 332.298H648.495C652.095 332.298 655.395 330.898 657.895 328.398C660.395 325.898 661.695 322.598 661.595 318.998V308.998C661.795 308.098 661.895 307.198 661.895 306.398V147.598H341.195L341.395 147.698Z" fill="white"/>
<path d="M355.195 235.701H513.695V243.401H355.195V235.701ZM355.195 261.701H513.695V254.001H355.195V261.701ZM355.195 279.701H513.695V272.001H355.195V279.701ZM355.195 298.001H479.295V290.301H355.195V298.001ZM355.195 316.001H479.295V308.301H355.195V316.001ZM649.095 159.301H355.195V224.601H649.095V159.301ZM649.095 235.001H531.295V316.701H649.095V235.001Z" fill="#C7D5E3"/>
<path d="M154.503 174.197C165.503 174.197 176.003 169.897 183.903 162.297L185.803 164.197C186.403 164.797 187.103 165.097 187.903 165.097H233.503V158.997H189.203L188.003 157.797C193.903 150.397 197.103 141.197 197.103 131.697C197.103 129.997 195.703 128.697 194.103 128.697H157.703V92.2969C157.703 90.5969 156.303 89.2969 154.703 89.2969C131.203 89.2969 112.203 108.297 112.203 131.797C112.203 155.297 131.203 174.297 154.703 174.297L154.503 174.197Z" fill="black"/>
<path d="M128.804 105.897C134.904 99.7969 142.904 95.9969 151.504 95.2969V131.597C151.504 133.297 152.904 134.597 154.504 134.597H190.804C190.204 141.397 187.704 147.897 183.604 153.397L174.804 144.597L170.504 148.897L179.504 157.897C165.004 171.797 142.004 171.297 128.104 156.797C114.404 142.497 114.604 119.797 128.704 105.797L128.804 105.897Z" fill="white"/>
<path d="M169.703 119.498H209.203C210.903 119.498 212.203 118.098 212.203 116.498C212.203 109.298 210.303 102.098 206.803 95.7984L210.403 92.1984H233.403V86.0984H209.103C208.303 86.0984 207.503 86.3984 207.003 86.9984L203.403 90.5984C202.303 89.0984 201.003 87.6984 199.703 86.3984C191.803 78.3984 181.003 73.8984 169.703 73.8984C168.003 73.8984 166.703 75.2984 166.703 76.8984V116.398C166.703 118.098 168.103 119.398 169.703 119.398V119.498Z" fill="black"/>
<path d="M172.797 80.1977C181.397 80.8977 189.397 84.6977 195.497 90.7977C196.797 92.0977 197.997 93.4977 199.097 94.9977L191.897 102.198L196.197 106.498L202.397 100.298C204.497 104.398 205.697 108.898 206.097 113.398H172.797V80.0977V80.1977Z" fill="white"/>
<path d="M187.997 177.199H175.797C174.14 177.199 172.797 178.542 172.797 180.199V240.999C172.797 242.656 174.14 243.999 175.797 243.999H187.997C189.654 243.999 190.997 242.656 190.997 240.999V180.199C190.997 178.542 189.654 177.199 187.997 177.199Z" fill="black"/>
<path d="M184.897 183.297H178.797V237.997H184.897V183.297Z" fill="white"/>
<path d="M163.7 189.398H151.5C149.843 189.398 148.5 190.742 148.5 192.398V241.098C148.5 242.755 149.843 244.098 151.5 244.098H163.7C165.357 244.098 166.7 242.755 166.7 241.098V192.398C166.7 190.742 165.357 189.398 163.7 189.398Z" fill="black"/>
<path d="M160.6 195.398H154.5V237.898H160.6V195.398Z" fill="white"/>
<path d="M139.403 207.598H127.203C125.546 207.598 124.203 208.941 124.203 210.598V240.998C124.203 242.655 125.546 243.998 127.203 243.998H139.403C141.06 243.998 142.403 242.655 142.403 240.998V210.598C142.403 208.941 141.06 207.598 139.403 207.598Z" fill="black"/>
<path d="M136.303 213.699H130.203V237.999H136.303V213.699Z" fill="white"/>
<path d="M118.1 177.198H112V253.098C112 254.798 113.4 256.098 115 256.098H203.1V249.998H118.1V177.098V177.198Z" fill="black"/>
<path d="M239.602 86.0977H263.902V92.1977H239.602V86.0977Z" fill="black"/>
<path d="M239.602 98.1992H263.902V104.299H239.602V98.1992Z" fill="black"/>
<path d="M239.602 110.398H263.902V116.498H239.602V110.398Z" fill="black"/>
<path d="M269.898 98.1992H294.198V104.299H269.898V98.1992Z" fill="black"/>
<path d="M269.898 110.398H294.198V116.498H269.898V110.398Z" fill="black"/>
<path d="M239.602 159H263.902V165.1H239.602V159Z" fill="black"/>
<path d="M269.898 159H294.198V165.1H269.898V159Z" fill="black"/>
<path d="M239.602 146.797H263.902V152.897H239.602V146.797Z" fill="black"/>
<path d="M269.898 146.797H294.198V152.897H269.898V146.797Z" fill="black"/>
<path d="M239.602 134.699H263.902V140.799H239.602V134.699Z" fill="black"/>
<path d="M269.898 134.699H294.198V140.799H269.898V134.699Z" fill="black"/>
<path d="M292.403 183.499C291.303 182.999 290.003 183.299 289.103 184.199L257.803 215.499L244.803 202.499C243.603 201.299 241.703 201.299 240.503 202.499L222.303 220.699C221.703 221.299 221.403 221.999 221.403 222.799V250.099H215.303V177.199H209.203V253.099C209.203 254.799 210.603 256.099 212.203 256.099H294.203V186.299C294.203 185.099 293.503 183.999 292.303 183.499H292.403Z" fill="black"/>
<path d="M242.597 208.798L255.597 221.798C256.797 222.998 258.697 222.998 259.897 221.798L288.097 193.598V224.498L287.197 223.598C285.997 222.398 284.097 222.398 282.897 223.598L269.897 236.598L262.897 229.598C261.697 228.398 259.797 228.398 258.597 229.598L251.597 236.598L238.597 223.598C237.397 222.398 235.497 222.398 234.297 223.598L227.297 230.598V223.998L242.497 208.798H242.597Z" fill="white"/>
<path d="M227.398 250.098V239.198L236.498 230.098L249.498 243.098C250.698 244.298 252.598 244.298 253.798 243.098L260.798 236.098L267.798 243.098C268.998 244.298 270.898 244.298 272.098 243.098L285.098 230.098L288.098 233.098V250.098H227.398Z" fill="white"/>
<path d="M377.198 382.601C372.498 382.601 367.898 382.401 363.298 382.201C361.898 382.201 360.898 381.001 360.898 379.601C360.898 378.201 362.098 377.201 363.498 377.201C367.998 377.401 372.598 377.601 377.198 377.601C378.598 377.601 379.698 378.801 379.698 380.101C379.698 381.501 378.598 382.601 377.198 382.601ZM389.998 382.501C388.598 382.501 387.498 381.401 387.498 380.001C387.498 378.601 388.598 377.501 389.998 377.501C394.498 377.501 399.098 377.301 403.698 377.001C405.098 377.001 406.298 378.001 406.298 379.401C406.298 380.801 405.298 382.001 403.898 382.001C399.198 382.201 394.598 382.401 389.998 382.501ZM350.698 381.301C350.698 381.301 350.598 381.301 350.498 381.301C345.798 380.901 341.198 380.401 336.698 379.801C335.298 379.601 334.398 378.401 334.498 377.001C334.698 375.601 335.898 374.701 337.298 374.801C341.698 375.401 346.298 375.901 350.898 376.301C352.298 376.401 353.298 377.601 353.198 379.001C353.098 380.301 351.998 381.301 350.698 381.301ZM416.498 381.201C415.198 381.201 414.098 380.201 413.998 378.901C413.898 377.501 414.898 376.301 416.298 376.201C420.798 375.801 425.398 375.401 429.998 374.901C431.398 374.801 432.598 375.701 432.798 377.101C432.998 378.501 431.998 379.701 430.598 379.901C425.998 380.401 421.298 380.901 416.798 381.201C416.798 381.201 416.698 381.201 416.598 381.201H416.498ZM442.898 378.401C441.698 378.401 440.598 377.501 440.398 376.201C440.198 374.801 441.198 373.601 442.498 373.401C446.998 372.801 451.598 372.101 456.098 371.301C457.498 371.101 458.698 372.001 458.998 373.401C459.198 374.801 458.298 376.001 456.898 376.301C452.298 377.101 447.698 377.801 443.198 378.401C443.098 378.401 442.998 378.401 442.898 378.401ZM324.298 377.901C324.198 377.901 323.998 377.901 323.898 377.901C319.298 377.101 314.698 376.201 310.198 375.201C308.898 374.901 307.998 373.601 308.298 372.201C308.598 370.901 309.898 370.001 311.298 370.301C315.698 371.301 320.198 372.201 324.698 372.901C326.098 373.101 326.998 374.401 326.698 375.801C326.498 377.001 325.398 377.901 324.198 377.901H324.298ZM469.098 374.001C467.898 374.001 466.898 373.201 466.598 372.001C466.298 370.601 467.198 369.301 468.598 369.101C473.098 368.201 477.598 367.301 482.098 366.301C483.498 366.001 484.798 366.901 485.098 368.201C485.398 369.501 484.498 370.901 483.198 371.201C478.698 372.201 474.098 373.201 469.598 374.001C469.398 374.001 469.298 374.001 469.098 374.001ZM298.398 372.101C298.198 372.101 297.998 372.101 297.698 372.101C293.198 370.801 288.698 369.501 284.398 368.001C283.098 367.601 282.398 366.101 282.798 364.801C283.198 363.501 284.698 362.801 285.998 363.201C290.198 364.601 294.598 366.001 299.098 367.201C300.398 367.601 301.198 368.901 300.798 370.301C300.498 371.401 299.498 372.101 298.398 372.101ZM495.098 368.301C493.998 368.301 492.998 367.501 492.698 366.401C492.398 365.101 493.198 363.701 494.498 363.401C498.898 362.301 503.398 361.101 507.798 359.901C509.098 359.501 510.498 360.301 510.898 361.601C511.298 362.901 510.498 364.301 509.198 364.701C504.798 365.901 500.198 367.101 495.798 368.201C495.598 368.201 495.398 368.201 495.198 368.201L495.098 368.301ZM273.198 363.501C272.898 363.501 272.598 363.501 272.198 363.301C267.798 361.501 263.498 359.501 259.498 357.401C258.298 356.801 257.798 355.301 258.398 354.001C258.998 352.801 260.498 352.301 261.798 352.901C265.698 354.901 269.898 356.801 274.198 358.601C275.498 359.101 276.098 360.601 275.498 361.901C275.098 362.901 274.198 363.401 273.198 363.401V363.501ZM520.698 361.301C519.598 361.301 518.598 360.601 518.298 359.501C517.898 358.201 518.598 356.801 519.998 356.401C524.398 355.101 528.798 353.701 533.098 352.301C534.398 351.901 535.798 352.601 536.298 353.901C536.698 355.201 535.998 356.601 534.698 357.101C530.298 358.501 525.898 359.901 521.498 361.301C521.298 361.301 520.998 361.401 520.798 361.401L520.698 361.301ZM545.998 352.901C544.998 352.901 543.998 352.301 543.598 351.201C543.098 349.901 543.798 348.501 545.098 348.001C549.398 346.501 553.698 344.801 557.998 343.201C559.298 342.701 560.698 343.301 561.198 344.601C561.698 345.901 561.098 347.301 559.798 347.801C555.498 349.501 551.098 351.101 546.798 352.601C546.498 352.601 546.198 352.701 545.998 352.701V352.901ZM249.598 351.501C249.098 351.501 248.698 351.401 248.298 351.101C244.198 348.601 240.298 345.901 236.698 343.101C235.598 342.301 235.398 340.701 236.298 339.601C237.098 338.501 238.698 338.301 239.798 339.201C243.298 341.901 246.998 344.501 250.898 346.901C252.098 347.601 252.398 349.201 251.698 350.301C251.198 351.101 250.398 351.501 249.598 351.501ZM570.798 343.401C569.798 343.401 568.898 342.801 568.498 341.901C567.998 340.601 568.498 339.201 569.798 338.601C573.998 336.801 578.298 335.001 582.398 333.101C583.698 332.501 585.098 333.101 585.698 334.401C586.298 335.701 585.698 337.101 584.398 337.701C580.198 339.601 575.898 341.501 571.698 343.201C571.398 343.301 571.098 343.401 570.698 343.401H570.798ZM228.598 335.201C227.998 335.201 227.298 335.001 226.898 334.501C223.498 331.201 220.298 327.601 217.498 324.001C216.698 322.901 216.798 321.301 217.898 320.501C218.998 319.701 220.598 319.801 221.398 320.901C224.098 324.401 227.098 327.701 230.398 330.901C231.398 331.901 231.398 333.401 230.398 334.401C229.898 334.901 229.298 335.201 228.598 335.201ZM594.998 332.501C594.098 332.501 593.198 332.001 592.698 331.101C592.098 329.901 592.698 328.401 593.898 327.801C597.998 325.801 602.198 323.701 606.198 321.601C607.398 321.001 608.898 321.401 609.598 322.701C610.198 323.901 609.798 325.401 608.498 326.101C604.398 328.201 600.298 330.301 596.098 332.301C595.698 332.501 595.398 332.501 594.998 332.501ZM618.598 320.201C617.698 320.201 616.898 319.701 616.398 318.901C615.698 317.701 616.198 316.201 617.398 315.501C621.398 313.301 625.398 310.901 629.298 308.601C630.498 307.901 631.998 308.301 632.698 309.501C633.398 310.701 632.998 312.201 631.798 312.901C627.898 315.201 623.798 317.601 619.798 319.901C619.398 320.101 618.998 320.201 618.598 320.201ZM212.298 314.401C211.398 314.401 210.598 313.901 210.098 313.101C207.698 309.001 205.698 304.601 204.098 300.201C203.598 298.901 204.298 297.501 205.598 297.001C206.898 296.501 208.298 297.201 208.798 298.501C210.298 302.601 212.198 306.701 214.498 310.601C215.198 311.801 214.798 313.301 213.598 314.001C213.198 314.201 212.798 314.301 212.398 314.301L212.298 314.401ZM641.398 306.601C640.598 306.601 639.798 306.201 639.298 305.501C638.598 304.301 638.898 302.801 640.098 302.001C643.998 299.501 647.798 296.901 651.498 294.401C652.598 293.601 654.198 293.901 654.998 295.001C655.798 296.101 655.498 297.701 654.398 298.501C650.598 301.101 646.798 303.701 642.798 306.201C642.398 306.501 641.898 306.601 641.398 306.601ZM663.198 291.401C662.398 291.401 661.698 291.101 661.198 290.401C660.398 289.301 660.598 287.701 661.698 286.901C665.398 284.101 668.998 281.301 672.498 278.501C673.598 277.601 675.098 277.801 675.998 278.901C676.898 280.001 676.698 281.501 675.598 282.401C672.098 285.301 668.398 288.201 664.598 291.001C664.198 291.301 663.598 291.501 663.098 291.501L663.198 291.401ZM202.998 289.601C201.798 289.601 200.798 288.801 200.598 287.601C199.698 283.001 199.098 278.301 198.898 273.501C198.898 272.101 199.898 271.001 201.298 270.901C202.698 270.901 203.798 271.901 203.898 273.301C204.098 277.801 204.598 282.301 205.498 286.601C205.798 288.001 204.898 289.301 203.598 289.601C203.398 289.601 203.298 289.601 203.098 289.601H202.998ZM683.898 274.701C683.198 274.701 682.498 274.401 681.998 273.901C681.098 272.901 681.198 271.301 682.198 270.401C685.698 267.401 688.998 264.201 692.298 261.101C693.298 260.101 694.898 260.201 695.798 261.101C696.798 262.101 696.698 263.701 695.798 264.601C692.498 267.801 689.098 271.001 685.598 274.101C685.098 274.501 684.498 274.701 683.898 274.701ZM702.998 256.201C702.398 256.201 701.798 256.001 701.298 255.501C700.298 254.601 700.198 253.001 701.198 252.001C704.398 248.601 707.398 245.201 710.298 241.801C711.198 240.701 712.798 240.601 713.798 241.501C714.898 242.401 714.998 244.001 714.098 245.001C711.198 248.501 708.098 252.001 704.798 255.401C704.298 255.901 703.598 256.201 702.998 256.201ZM719.998 235.901C719.498 235.901 718.998 235.701 718.498 235.401C717.398 234.601 717.198 233.001 717.998 231.901C720.798 228.201 723.298 224.401 725.698 220.701C726.398 219.501 727.998 219.201 729.098 219.901C730.298 220.601 730.598 222.201 729.898 223.301C727.498 227.101 724.798 231.001 721.998 234.801C721.498 235.501 720.798 235.801 719.998 235.801V235.901ZM734.198 213.501C733.798 213.501 733.398 213.501 732.998 213.201C731.798 212.601 731.298 211.001 731.998 209.801C734.198 205.701 736.098 201.601 737.798 197.501C738.298 196.201 739.798 195.601 741.098 196.101C742.398 196.601 742.998 198.101 742.498 199.401C740.798 203.601 738.798 207.901 736.498 212.101C736.098 212.901 735.198 213.401 734.298 213.401L734.198 213.501ZM744.298 188.901C744.098 188.901 743.798 188.901 743.598 188.801C742.298 188.401 741.498 187.001 741.898 185.701C743.198 181.301 744.198 176.901 744.898 172.601C745.098 171.201 746.398 170.301 747.798 170.501C749.198 170.701 750.098 172.001 749.898 173.401C749.198 177.901 748.098 182.601 746.798 187.201C746.498 188.301 745.498 189.001 744.398 189.001L744.298 188.901ZM748.498 162.801C747.098 162.801 745.998 161.601 746.098 160.201C746.098 159.601 746.098 158.901 746.098 158.301C746.098 154.401 745.798 150.601 745.298 146.801C745.098 145.401 746.098 144.201 747.398 144.001C748.798 143.801 749.998 144.801 750.198 146.101C750.798 150.101 750.998 154.201 750.998 158.301C750.998 159.001 750.998 159.601 750.998 160.301C750.998 161.701 749.898 162.701 748.498 162.701V162.801ZM744.998 136.601C743.898 136.601 742.898 135.901 742.598 134.801C741.298 130.501 739.698 126.401 737.698 122.301C737.098 121.101 737.698 119.601 738.798 119.001C739.998 118.401 741.498 119.001 742.098 120.101C744.198 124.401 745.898 128.801 747.298 133.301C747.698 134.601 746.898 136.001 745.598 136.401C745.398 136.401 745.098 136.501 744.898 136.501L744.998 136.601ZM301.398 131.401C300.598 131.401 299.798 131.001 299.298 130.301C298.498 129.201 298.798 127.601 299.998 126.801C303.798 124.201 307.698 121.701 311.698 119.201C312.898 118.501 314.398 118.801 315.098 120.001C315.798 121.201 315.498 122.701 314.298 123.401C310.398 125.801 306.498 128.301 302.798 130.901C302.398 131.201 301.898 131.301 301.398 131.301V131.401ZM323.898 117.301C322.998 117.301 322.198 116.901 321.698 116.101C320.998 114.901 321.398 113.401 322.598 112.701C326.498 110.401 330.598 108.101 334.698 105.901C335.898 105.201 337.398 105.701 338.098 106.901C338.798 108.101 338.298 109.601 337.098 110.301C333.098 112.501 328.998 114.801 325.098 117.001C324.698 117.201 324.298 117.301 323.798 117.301H323.898ZM733.598 112.801C732.798 112.801 731.998 112.401 731.498 111.701C728.998 108.101 726.198 104.601 723.098 101.201C722.198 100.201 722.198 98.6008 723.198 97.7008C724.198 96.8008 725.798 96.8008 726.698 97.8008C729.998 101.301 732.898 105.001 735.598 108.801C736.398 109.901 736.098 111.501 734.998 112.301C734.598 112.601 734.098 112.701 733.598 112.701V112.801ZM347.298 104.601C346.398 104.601 345.498 104.101 345.098 103.201C344.498 102.001 344.998 100.501 346.198 99.8008C350.298 97.7008 354.498 95.7008 358.698 93.7008C359.898 93.1008 361.398 93.7008 361.998 94.9008C362.598 96.1008 361.998 97.6008 360.798 98.2008C356.598 100.101 352.498 102.201 348.398 104.201C347.998 104.401 347.698 104.501 347.298 104.501V104.601ZM371.298 93.3008C370.298 93.3008 369.398 92.7008 368.998 91.8008C368.398 90.5008 368.998 89.1008 370.298 88.5008C374.498 86.7008 378.798 84.9008 383.098 83.1008C384.398 82.6008 385.798 83.1008 386.398 84.5008C386.898 85.8008 386.398 87.2008 384.998 87.8008C380.798 89.5008 376.498 91.3008 372.298 93.1008C371.998 93.2008 371.598 93.3008 371.298 93.3008ZM715.698 93.2008C715.098 93.2008 714.498 93.0008 714.098 92.6008C710.798 89.8008 707.098 87.0008 703.298 84.4008C702.198 83.6008 701.898 82.1008 702.598 80.9008C703.398 79.8008 704.898 79.5008 706.098 80.2008C710.098 82.9008 713.798 85.8008 717.298 88.7008C718.398 89.6008 718.498 91.2008 717.598 92.2008C717.098 92.8008 716.398 93.1008 715.698 93.1008V93.2008ZM395.898 83.3008C394.898 83.3008 393.898 82.7008 393.598 81.7008C393.098 80.4008 393.798 79.0008 395.098 78.5008C399.398 76.9008 403.798 75.3008 408.198 73.8008C409.498 73.4008 410.898 74.0008 411.398 75.3008C411.898 76.6008 411.198 78.0008 409.898 78.5008C405.598 80.0008 401.198 81.6008 396.998 83.2008C396.698 83.3008 396.398 83.4008 396.098 83.4008L395.898 83.3008ZM693.898 78.2008C693.498 78.2008 693.098 78.1008 692.698 77.9008C688.798 75.8008 684.698 73.7008 680.498 71.8008C679.198 71.2008 678.698 69.8008 679.298 68.5008C679.898 67.2008 681.398 66.7008 682.598 67.2008C686.898 69.2008 691.198 71.3008 695.098 73.5008C696.298 74.2008 696.698 75.7008 696.098 76.9008C695.598 77.7008 694.798 78.2008 693.898 78.2008ZM420.998 74.6008C419.898 74.6008 418.998 73.9008 418.598 72.9008C418.198 71.6008 418.898 70.2008 420.198 69.8008C423.798 68.6008 427.498 67.5008 431.198 66.4008C431.998 66.2008 432.698 65.9008 433.498 65.7008C434.798 65.3008 436.198 66.1008 436.598 67.4008C436.998 68.7008 436.198 70.1008 434.898 70.5008C434.098 70.7008 433.398 70.9008 432.598 71.2008C428.998 72.3008 425.298 73.4008 421.698 74.5008C421.398 74.5008 421.198 74.6008 420.898 74.6008H420.998ZM446.498 67.2008C445.398 67.2008 444.398 66.5008 444.098 65.3008C443.698 64.0008 444.498 62.6008 445.898 62.2008C450.398 61.0008 454.898 59.9008 459.398 58.8008C460.698 58.5008 462.098 59.3008 462.398 60.7008C462.698 62.0008 461.898 63.4008 460.498 63.7008C456.098 64.7008 451.598 65.9008 447.198 67.0008C446.998 67.0008 446.798 67.0008 446.598 67.0008L446.498 67.2008ZM669.698 67.1008C669.398 67.1008 669.098 67.1008 668.798 66.9008C664.598 65.3008 660.298 63.9008 655.898 62.5008C654.598 62.1008 653.798 60.7008 654.198 59.4008C654.598 58.1008 655.998 57.3008 657.298 57.7008C661.798 59.1008 666.298 60.6008 670.498 62.2008C671.798 62.7008 672.498 64.1008 671.998 65.4008C671.598 66.4008 670.698 67.0008 669.698 67.0008V67.1008ZM472.398 61.0008C471.198 61.0008 470.198 60.2008 469.998 59.0008C469.698 57.6008 470.598 56.3008 471.898 56.0008C476.398 55.0008 480.998 54.1008 485.498 53.3008C486.898 53.0008 488.198 54.0008 488.398 55.3008C488.598 56.7008 487.698 58.0008 486.398 58.2008C481.898 59.0008 477.398 59.9008 472.898 60.9008C472.698 60.9008 472.598 60.9008 472.398 60.9008V61.0008ZM644.298 59.4008C644.098 59.4008 643.898 59.4008 643.698 59.4008C639.398 58.3008 634.898 57.4008 630.298 56.5008C628.898 56.2008 628.098 54.9008 628.298 53.6008C628.598 52.2008 629.898 51.4008 631.198 51.6008C635.798 52.5008 640.398 53.5008 644.798 54.6008C646.098 54.9008 646.998 56.3008 646.598 57.6008C646.298 58.7008 645.298 59.5008 644.198 59.5008L644.298 59.4008ZM498.598 56.2008C497.398 56.2008 496.298 55.3008 496.098 54.1008C495.898 52.7008 496.798 51.5008 498.198 51.2008C502.798 50.5008 507.398 49.8008 511.998 49.3008C513.398 49.1008 514.598 50.1008 514.798 51.5008C514.998 52.9008 513.998 54.1008 512.598 54.3008C508.098 54.9008 503.498 55.5008 498.998 56.2008C498.898 56.2008 498.698 56.2008 498.598 56.2008ZM618.198 54.3008C618.098 54.3008 617.998 54.3008 617.798 54.3008C613.398 53.6008 608.798 53.1008 604.198 52.6008C602.798 52.5008 601.798 51.2008 601.998 49.9008C602.098 48.5008 603.398 47.5008 604.698 47.7008C609.398 48.2008 613.998 48.8008 618.498 49.4008C619.898 49.6008 620.798 50.9008 620.598 52.2008C620.398 53.4008 619.298 54.3008 618.098 54.3008H618.198ZM524.898 52.9008C523.598 52.9008 522.498 51.9008 522.398 50.6008C522.298 49.2008 523.298 48.0008 524.598 47.9008C529.198 47.4008 533.898 47.1008 538.398 46.7008C539.798 46.7008 540.998 47.6008 541.098 49.0008C541.098 50.4008 540.198 51.6008 538.798 51.7008C534.298 52.0008 529.698 52.4008 525.098 52.8008H524.898V52.9008ZM591.798 51.6008C591.798 51.6008 591.698 51.6008 591.598 51.6008C587.098 51.3008 582.498 51.1008 577.898 51.0008C576.498 51.0008 575.398 49.8008 575.498 48.4008C575.498 47.0008 576.698 46.0008 578.098 46.0008C582.798 46.1008 587.398 46.3008 591.998 46.6008C593.398 46.6008 594.398 47.9008 594.298 49.3008C594.298 50.6008 593.098 51.6008 591.798 51.6008ZM551.398 51.1008C550.098 51.1008 548.998 50.0008 548.898 48.7008C548.898 47.3008 549.898 46.2008 551.298 46.1008C555.998 45.9008 560.598 45.8008 565.198 45.8008C566.598 45.8008 567.698 46.9008 567.698 48.3008C567.698 49.7008 566.598 50.8008 565.198 50.8008C560.698 50.8008 556.098 50.9008 551.498 51.1008H551.398Z" fill="black"/>
<path d="M641.397 221.898C594.297 221.898 556.297 259.998 556.297 306.998C556.297 353.998 594.397 392.098 641.397 392.098C688.397 392.098 726.497 353.998 726.497 306.998C726.497 259.998 688.397 221.898 641.397 221.898Z" fill="black"/>
<path d="M641.394 385.397C598.194 385.397 563.094 350.297 563.094 307.097C563.094 263.897 598.194 228.797 641.394 228.797C684.594 228.797 719.694 263.897 719.694 307.097C719.694 350.297 684.594 385.397 641.394 385.397Z" fill="white"/>
<path d="M641.398 235.598C601.998 235.598 569.898 267.698 569.898 307.098C569.898 346.498 601.998 378.598 641.398 378.598C680.798 378.598 712.898 346.498 712.898 307.098C712.898 267.698 680.798 235.598 641.398 235.598Z" fill="black"/>
<path d="M644.797 371.7V361.6C644.797 359.7 643.297 358.2 641.397 358.2C639.497 358.2 637.997 359.7 637.997 361.6V371.7C604.997 370 578.497 343.5 576.797 310.5H586.897C588.797 310.5 590.297 309 590.297 307.1C590.297 305.2 588.797 303.7 586.897 303.7H576.797C578.497 270.7 604.997 244.2 637.997 242.5V252.6C637.997 254.5 639.497 256 641.397 256C643.297 256 644.797 254.5 644.797 252.6V242.5C677.797 244.2 704.297 270.7 705.997 303.7H695.897C693.997 303.7 692.497 305.2 692.497 307.1C692.497 309 693.997 310.5 695.897 310.5H705.997C704.297 343.5 677.797 370 644.797 371.7Z" fill="white"/>
<path d="M677.294 263.198L626.194 290.398C625.594 290.698 625.094 291.198 624.794 291.798L597.594 342.898C596.894 344.198 597.094 345.798 598.094 346.798C599.094 347.898 600.594 348.198 601.994 347.598L656.494 323.798C657.294 323.498 657.894 322.798 658.294 321.998L682.094 267.498C682.694 266.198 682.394 264.598 681.294 263.598C680.194 262.598 678.694 262.398 677.394 263.098L677.294 263.198Z" fill="black"/>
<path d="M652.495 318.097L608.195 337.497L630.295 295.997L671.795 273.797L652.495 318.097Z" fill="#00A2FF"/>
<path d="M641.395 317.298C646.995 317.298 651.595 312.698 651.595 307.098C651.595 301.498 646.995 296.898 641.395 296.898C635.795 296.898 631.195 301.498 631.195 307.098C631.195 312.698 635.795 317.298 641.395 317.298Z" fill="black"/>
<path d="M641.4 310.499C643.278 310.499 644.8 308.977 644.8 307.099C644.8 305.221 643.278 303.699 641.4 303.699C639.522 303.699 638 305.221 638 307.099C638 308.977 639.522 310.499 641.4 310.499Z" fill="white"/>
<path d="M304.203 355.5C300.703 352.3 299.203 347.6 298.903 343C298.903 341.5 299.003 340 299.403 338.6C297.903 338.9 296.403 339 294.803 338.9C287.403 338.9 280.903 335.8 275.703 331C270.403 326.2 268.003 318.9 267.803 311.9C267.703 308.1 268.503 304.6 270.103 301.5C270.903 299.1 272.103 296.8 273.703 294.8C271.903 294.5 270.103 294.5 268.303 294.5C242.203 294.5 220.903 315.2 220.003 341.2C219.103 368.7 241.503 391.6 269.203 391.2C289.303 390.9 306.403 378.3 313.403 360.6C310.003 359.8 306.903 358 304.203 355.6V355.5Z" fill="white"/>
<path d="M245.305 327.799C245.305 323.899 248.505 320.699 252.405 320.699C256.305 320.699 259.505 323.899 259.505 327.799C259.505 331.699 256.305 334.899 252.405 334.899C248.505 334.899 245.305 331.699 245.305 327.799Z" fill="black"/>
<path d="M256.1 369.802C251.4 369.802 247.5 365.902 247.5 361.202C247.5 356.502 251.4 352.602 256.1 352.602C260.8 352.602 264.7 356.502 264.7 361.202C264.7 365.902 260.8 369.802 256.1 369.802Z" fill="black"/>
<path d="M281.805 357.602C278.705 357.602 276.305 355.202 276.305 352.102C276.305 349.002 278.705 346.602 281.805 346.602C284.905 346.602 287.305 349.002 287.305 352.102C287.305 355.202 284.905 357.602 281.805 357.602Z" fill="black"/>
<path d="M283.603 315.8C287.414 315.8 290.503 312.711 290.503 308.9C290.503 305.089 287.414 302 283.603 302C279.792 302 276.703 305.089 276.703 308.9C276.703 312.711 279.792 315.8 283.603 315.8Z" fill="black"/>
<path d="M306.706 320.6C309.357 320.6 311.506 318.451 311.506 315.8C311.506 313.149 309.357 311 306.706 311C304.055 311 301.906 313.149 301.906 315.8C301.906 318.451 304.055 320.6 306.706 320.6Z" fill="black"/>
<path d="M310.503 342.901C312.602 342.901 314.303 341.199 314.303 339.101C314.303 337.002 312.602 335.301 310.503 335.301C308.404 335.301 306.703 337.002 306.703 339.101C306.703 341.199 308.404 342.901 310.503 342.901Z" fill="black"/>
<path d="M689.9 116.901C685.4 116.701 685.5 110.301 689.9 110.101C702.5 110.101 735.6 110.101 748.6 110.101C752.1 110.101 755.2 107.701 756 104.201L763.4 72.3008C763.8 70.5008 763.4 68.6008 762.2 67.1008C761 65.6008 759.3 64.8008 757.4 64.8008C752.2 64.8008 707.9 64.6008 685.2 64.5008L681.6 51.2008C680.7 48.0008 677.8 45.8008 674.5 45.8008H663C661.3 45.8008 660 47.2008 660 48.8008C660 50.4008 661.4 51.8008 663 51.8008H674.5C675.1 51.8008 675.6 52.2008 675.7 52.7008L689.5 104.001C687.1 104.001 684.8 105.101 683.1 106.801C681.3 108.601 680.3 111.101 680.4 113.601C680.4 118.701 684.7 122.901 689.9 122.901H694.3C693.6 124.301 693.3 125.801 693.3 127.501C693.3 133.401 698.1 138.101 703.9 138.101C709.7 138.101 714.5 133.301 714.5 127.501C714.5 121.701 714.1 124.301 713.5 122.901H732.7C732 124.301 731.7 125.801 731.7 127.501C731.7 133.401 736.5 138.101 742.3 138.101C748.1 138.101 752.9 133.301 752.9 127.501C752.9 121.701 752.5 124.201 751.8 122.801C753 122.401 753.9 121.301 753.9 119.901C753.9 118.501 752.5 116.901 750.9 116.901H690H689.9Z" fill="black"/>
<path d="M708.497 127.502C708.497 130.002 706.497 132.102 703.897 132.102C701.297 132.102 699.297 130.102 699.297 127.502C699.297 124.902 701.297 122.902 703.897 122.902C706.397 122.902 708.497 124.902 708.497 127.502Z" fill="white"/>
<path d="M742.303 132.102C739.803 132.102 737.703 130.102 737.703 127.502C737.703 124.902 739.703 123.002 742.203 122.902H742.303C744.803 122.902 746.803 125.002 746.803 127.502C746.803 130.002 744.803 132.102 742.203 132.102H742.303Z" fill="white"/>
<path d="M757.498 70.8992L754.398 84.2992H743.898L745.698 70.6992H757.498V70.8992Z" fill="white"/>
<path d="M726.203 104.1V90.5H736.903L735.103 104.1H726.203Z" fill="white"/>
<path d="M711.097 104.1L709.297 90.5H720.097V104.1H711.097Z" fill="white"/>
<path d="M697.103 104.102C696.403 104.102 695.703 103.602 695.503 102.902L692.203 90.6016H703.203L705.003 104.202H697.103V104.102Z" fill="white"/>
<path d="M708.503 84.3992L706.703 70.6992L720.103 70.7992V84.3992H708.503Z" fill="white"/>
<path d="M726.203 84.4008V70.8008H739.503L737.703 84.4008H726.203Z" fill="white"/>
<path d="M700.497 70.7016L702.397 84.4016H690.597L686.797 70.6016L700.497 70.7016Z" fill="white"/>
<path d="M748.603 104.1H741.203L743.003 90.5H752.903L750.003 102.9C749.803 103.6 749.203 104.1 748.503 104.1H748.603Z" fill="white"/>
</g>
<defs>
<clipPath id="clip0_1066_59744">
<rect width="900" height="450" fill="white"/>
</clipPath>
</defs>
</svg>
